<svg id="Layer_1" data-name="Layer 1" xmlns="http://www.w3.org/2000/svg" xmlns:xlink="http://www.w3.org/1999/xlink" viewBox="0 0 100 72.74"><defs><mask id="mask" x="0" y="0" width="59.89" height="59.28" maskUnits="userSpaceOnUse"><g transform="translate(0 -0.26)"><g id="mask-2"><polygon id="path-1" points="0 0.26 59.89 0.26 59.89 59.54 0 59.54 0 0.26" style="fill:#fff;fill-rule:evenodd"/></g></g></mask><mask id="mask-2-2" x="0" y="13.89" width="5.39" height="6.54" maskUnits="userSpaceOnUse"><g transform="translate(0 -0.26)"><g id="mask-4"><polygon id="path-3" points="0 14.15 5.39 14.15 5.39 20.69 0 20.69 0 14.15" style="fill:#fff;fill-rule:evenodd"/></g></g></mask><mask id="mask-3" x="0" y="26.78" width="1.03" height="2.52" maskUnits="userSpaceOnUse"><g transform="translate(0 -0.26)"><g id="mask-6"><polygon id="path-5" points="0 27.04 1.03 27.04 1.03 29.56 0 29.56 0 27.04" style="fill:#fff;fill-rule:evenodd"/></g></g></mask><mask id="mask-4-2" x="14.09" y="52.03" width="12.97" height="7.25" maskUnits="userSpaceOnUse"><g transform="translate(0 -0.26)"><g id="mask-8"><polygon id="path-7" points="14.09 52.29 27.06 52.29 27.06 59.54 14.09 59.54 14.09 52.29" style="fill:#fff;fill-rule:evenodd"/></g></g></mask><mask id="mask-5" x="0" y="32.85" width="1.87" height="2.15" maskUnits="userSpaceOnUse"><g transform="translate(0 -0.26)"><g id="mask-10"><polygon id="path-9" points="0 33.11 1.87 33.11 1.87 35.26 0 35.26 0 33.11" style="fill:#fff;fill-rule:evenodd"/></g></g></mask><filter id="filter-12" x="-26.9%" y="-19.2%" width="153.8%" height="153.8%" name="filter-12"><feOffset result="shadowOffsetOuter1" dy="2" in="SourceAlpha"/><feGaussianBlur result="shadowBlurOuter1" stdDeviation="2" in="shadowOffsetOuter1"/><feColorMatrix values="0 0 0 0 0 0 0 0 0 0 0 0 0 0 0 0 0 0 0.1 0" in="shadowBlurOuter1"/></filter><filter id="filter-14" x="-26.9%" y="-19.2%" width="153.8%" height="153.8%" name="filter-14"><feOffset result="shadowOffsetOuter1" dy="2" in="SourceAlpha"/><feGaussianBlur result="shadowBlurOuter1" stdDeviation="2" in="shadowOffsetOuter1"/><feColorMatrix values="0 0 0 0 0 0 0 0 0 0 0 0 0 0 0 0 0 0 0.1 0" in="shadowBlurOuter1"/></filter></defs><g id="_1440" data-name="1440"><g id="Apps-Cat-Post-Launch-design"><g id="sub-nav"><g id="gopro-app"><g id="icon-gopro-app"><g id="Group-3"><g style="mask:url(#mask)"><path id="Fill-1" d="M45.78,59.54H14.11A14,14,0,0,1,0,45.58V14.22A14,14,0,0,1,14.11.26H45.78a14,14,0,0,1,14.11,14V45.58a14,14,0,0,1-14.11,14" transform="translate(0 -0.26)" style="fill:#231f20;fill-rule:evenodd"/></g></g><g id="Group-6"><g style="mask:url(#mask-2-2)"><path id="Fill-4" d="M1.49,15.61c1-.5,1.54-.56,1.72-.22l.87,1.69c.18.34-.2.75-1.19,1.25L.77,19.4c-.3.14-.55.25-.77.33v1a7.65,7.65,0,0,0,1.18-.49L3.3,19.13Q6,17.79,5.24,16.42l-.8-1.57c-.48-.93-1.6-.93-3.36,0L0,15.35v1Z" transform="translate(0 -0.26)" style="fill:#4d4d4d;fill-rule:evenodd"/></g></g><path id="Fill-7" d="M22.1,5.22l2.12-1.07c1-.49,1.54-.56,1.72-.22l.87,1.7c.17.34-.21.74-1.2,1.24L23.49,7.94c-1,.5-1.54.57-1.72.22L20.9,6.47c-.17-.34.21-.75,1.2-1.25ZM20.55,8.7c.47.93,1.59.93,3.36,0L26,7.67Q28.67,6.34,28,5l-.81-1.57q-.7-1.38-3.36,0L21.68,4.42Q19,5.75,19.74,7.13Z" transform="translate(0 -0.26)" style="fill:#4d4d4d;fill-rule:evenodd"/><path id="Fill-9" d="M10.49,9.61c1.1-.56,1.72-.71,1.95-.27l.39.76c.23.44-.26.85-1.36,1.41L7,13.75l-1-1.9ZM7,16.81c.13.24.34.28.63.13L8,16.75c.29-.14.38-.34.26-.58l-.83-1.61,4.45-2.24a6.45,6.45,0,0,0,1.74-1.2,1.44,1.44,0,0,0,.43-1.72l-.44-.86c-.23-.43-.76-.58-1.61-.43a7,7,0,0,0-1.93.68l-5.35,2.7a.39.39,0,0,0-.18.53Z" transform="translate(0 -0.26)" style="fill:#4d4d4d;fill-rule:evenodd"/><path id="Fill-11" d="M16.72,11.93c.12.23.32.27.6.13l.35-.18c.28-.14.37-.32.25-.55L16.56,8.68c-.19-.37.19-.76,1.11-1.22l.51-.26a.41.41,0,0,0,.23-.63c-.13-.26-.35-.32-.65-.17a5.78,5.78,0,0,0-2.09,1.36,1.35,1.35,0,0,0-.31,1.52Z" transform="translate(0 -0.26)" style="fill:#4d4d4d;fill-rule:evenodd"/><g id="Group-15"><g style="mask:url(#mask-3)"><polygon id="Fill-13" points="0 26.78 0 29.3 1.03 28.78 0 26.78" style="fill:#4d4d4d;fill-rule:evenodd"/></g></g><polygon id="Fill-16" points="11.44 23.54 8.55 17.93 0 22.24 0 22.48 2.79 27.9 11.44 23.54" style="fill:#4d4d4d;fill-rule:evenodd"/><polygon id="Fill-18" points="13.2 22.65 21.85 18.29 18.96 12.68 10.31 17.04 13.2 22.65" style="fill:#4d4d4d;fill-rule:evenodd"/><polygon id="Fill-20" points="23.61 17.4 32.26 13.04 29.37 7.43 20.72 11.79 23.61 17.4" style="fill:#4d4d4d;fill-rule:evenodd"/><path id="Fill-22" d="M48.7,3.19a2,2,0,0,0,2.24.69l2.61-1.32a15.82,15.82,0,0,0-2-1.1l-1.45.74c-.45.22-1-.36-1.81-1.73-.5-.08-1-.14-1.51-.18l.3.57A8.53,8.53,0,0,0,48.7,3.19" transform="translate(0 -0.26)" style="fill:#4d4d4d;fill-rule:evenodd"/><path id="Fill-24" d="M40.32,3.74l1.23-.62c.25-.13.54.15.9.85l.78,1.5c.36.71.41,1.1.16,1.22l-1.23.62c-.24.13-.54-.14-.9-.84L40.49,5c-.36-.7-.41-1.1-.17-1.22Zm.36,3c.65,1.25,1.3,1.72,2,1.38l1.13-.58c.67-.33.68-1.13,0-2.38L43,3.67c-.65-1.25-1.3-1.71-2-1.37l-1.14.57c-.67.34-.67,1.13,0,2.38Z" transform="translate(0 -0.26)" style="fill:#4d4d4d;fill-rule:evenodd"/><path id="Fill-26" d="M40.84.82s.17.33.18.37a.31.31,0,0,0,.46.16c.19-.09.23-.25.12-.46L41.28.26h-.79a3.48,3.48,0,0,1,.35.56" transform="translate(0 -0.26)" style="fill:#4d4d4d;fill-rule:evenodd"/><path id="Fill-28" d="M37.5.57l.13.26c.1.19.23.25.4.17L39.5.26h-2a.3.3,0,0,0,0,.31" transform="translate(0 -0.26)" style="fill:#4d4d4d;fill-rule:evenodd"/><polygon id="Fill-30" points="36.86 1.49 36.1 0 30.98 0 32.8 3.53 36.86 1.49" style="fill:#4d4d4d;fill-rule:evenodd"/><polygon id="Fill-32" points="40.67 8.88 37.51 2.73 33.44 4.78 36.6 10.93 40.67 8.88" style="fill:#4d4d4d;fill-rule:evenodd"/><path id="Fill-34" d="M5.85,7.72,4.12,4.36A14,14,0,0,0,.59,10.21l.07.13Z" transform="translate(0 -0.26)" style="fill:#4d4d4d;fill-rule:evenodd"/><polygon id="Fill-36" points="12.09 4.31 10.36 0.95 5.17 3.57 6.9 6.93 12.09 4.31" style="fill:#4d4d4d;fill-rule:evenodd"/><path id="Fill-38" d="M13.15,4l5.19-2.62L17.74.26H14.11a14.41,14.41,0,0,0-2.2.17l-.49.25Z" transform="translate(0 -0.26)" style="fill:#4d4d4d;fill-rule:evenodd"/><polygon id="Fill-40" points="20.65 0 19.07 0 19.39 0.63 20.65 0" style="fill:#4d4d4d;fill-rule:evenodd"/><path id="Fill-42" d="M58,52.64a13.79,13.79,0,0,0,1.93-7.06V34.11L50.78,38.7Z" transform="translate(0 -0.26)" style="fill:#4d4d4d;fill-rule:evenodd"/><path id="Fill-44" d="M42,57.15l-.91-1.77c-.53-1-1.78-1-3.77,0l-2.38,1.2c-2,1-2.7,2-2.21,3h1.69l-.36-.7c-.2-.38.23-.84,1.34-1.4l2.38-1.2c1.11-.56,1.74-.64,1.94-.25l1,1.9c.19.39-.24.84-1.35,1.4l-.49.25h2.07c1.13-.78,1.49-1.58,1.07-2.39" transform="translate(0 -0.26)" style="fill:#4d4d4d;fill-rule:evenodd"/><path id="Fill-46" d="M50.2,49.21a7.76,7.76,0,0,0-2.27.78l-3.21,1.62a6.17,6.17,0,0,0-1.83,1.32,1.51,1.51,0,0,0-.41,1.78l.63,1.22c.13.27.36.3.69.14l2.91-1.47a.54.54,0,0,0,.22-.73.56.56,0,0,0-.73-.26l-2,1L43.87,54c-.1-.2.06-.52.44-.85a3.47,3.47,0,0,1,.88-.57l3.2-1.62c1.27-.64,2-.75,2.23-.33l1.6,3.1c.21.41-.45,1-2,1.76l-.9.45c-.34.17-.44.42-.28.72a.49.49,0,0,0,.75.2l1.28-.65a7.34,7.34,0,0,0,1.95-1.36c.6-.61.87-1.28.58-1.84L52,49.87c-.3-.58-.91-.8-1.84-.66" transform="translate(0 -0.26)" style="fill:#4d4d4d;fill-rule:evenodd"/><path id="Fill-48" d="M30.06,59l-.42.21a.59.59,0,0,0-.33.33H31l-.2-.39c-.14-.27-.38-.32-.71-.15" transform="translate(0 -0.26)" style="fill:#4d4d4d;fill-rule:evenodd"/><polygon id="Fill-50" points="47.21 40.24 37.49 45.14 40.73 51.44 50.46 46.54 47.21 40.24" style="fill:#4d4d4d;fill-rule:evenodd"/><polygon id="Fill-52" points="25.79 51.04 29.03 57.34 38.76 52.44 35.52 46.14 25.79 51.04" style="fill:#4d4d4d;fill-rule:evenodd"/><g id="Group-56"><g style="mask:url(#mask-4-2)"><polygon id="Fill-54" points="23.82 52.03 14.09 56.94 15.3 59.28 25.18 59.28 27.06 58.34 23.82 52.03" style="fill:#4d4d4d;fill-rule:evenodd"/></g></g><path id="Fill-57" d="M10.4,59.06a14.45,14.45,0,0,0,2.38.42l-.66-1.29Z" transform="translate(0 -0.26)" style="fill:#4d4d4d;fill-rule:evenodd"/><path id="Fill-59" d="M15.32,34.44,13.9,31.68c-.29-.56.33-1.21,1.94-2l3.46-1.75c1.61-.81,2.51-.92,2.8-.36l1.42,2.76c.29.55-.34,1.21-1.95,2l-3.45,1.75c-1.61.81-2.51.92-2.8.36Zm6.93-.8c2.87-1.45,3.93-2.91,3.16-4.42l-1.32-2.55c-.77-1.51-2.59-1.52-5.47-.07l-3.45,1.75c-2.88,1.45-3.94,2.91-3.16,4.41l1.31,2.56c.78,1.5,2.6,1.51,5.47.06Z" transform="translate(0 -0.26)" style="fill:#fff;fill-rule:evenodd"/><path id="Fill-61" d="M52.18,9.68C49.3,11.13,48.24,12.59,49,14.1l1.31,2.55c.78,1.51,2.59,1.52,5.47.07L59.25,15l.64-.34v-.42q0-.65-.06-1.29a8.59,8.59,0,0,1-1.25.74l-3.45,1.74c-1.61.81-2.52.92-2.8.37L50.91,13c-.29-.56.33-1.22,1.94-2l3.46-1.74a4.06,4.06,0,0,1,2.37-.68A13.8,13.8,0,0,0,57.89,7a11.61,11.61,0,0,0-2.26.9Z" transform="translate(0 -0.26)" style="fill:#fff;fill-rule:evenodd"/><g id="Group-65"><g style="mask:url(#mask-5)"><path id="Fill-63" d="M.06,35.23l1.3-.66c.5-.25.63-.6.41-1S1.18,33,.68,33.25L0,33.59v1.67l.06,0" transform="translate(0 -0.26)" style="fill:#fff;fill-rule:evenodd"/></g></g><path id="Fill-66" d="M3.42,43.14l4.66-2.35a8.93,8.93,0,0,0,2.65-1.92,2.2,2.2,0,0,0,.59-2.58l-.91-1.77c-.2-.38-.53-.43-1-.19L5.19,36.45a.78.78,0,0,0-.32,1.07.81.81,0,0,0,1.06.37l2.88-1.46.49,1c.14.29-.09.75-.63,1.24a5.52,5.52,0,0,1-1.28.82L2.76,41.78A5.22,5.22,0,0,1,0,42.61v1.68l.13,0a11.09,11.09,0,0,0,3.29-1.13" transform="translate(0 -0.26)" style="fill:#fff;fill-rule:evenodd"/><path id="Fill-68" d="M34,18.13c1.78-.9,2.8-1.15,3.17-.43l.63,1.23c.38.73-.43,1.4-2.21,2.29l-7.24,3.66-1.6-3.1Zm-9.68,3.94,4,7.79c.2.39.55.46,1,.22l.61-.31c.47-.24.62-.56.42-.95L29,26.2l7.24-3.65a10.29,10.29,0,0,0,2.84-2c.91-1,1.15-1.91.69-2.79L39,16.4c-.36-.71-1.23-.95-2.61-.71a11.73,11.73,0,0,0-3.15,1.11l-8.71,4.4a.64.64,0,0,0-.29.87Z" transform="translate(0 -0.26)" style="fill:#fff;fill-rule:evenodd"/><path id="Fill-70" d="M42.39,15.12a2.19,2.19,0,0,0-.51,2.48l2.22,4.32c.19.37.52.44,1,.21l.58-.29c.45-.23.59-.53.4-.91l-2.22-4.31c-.31-.6.31-1.24,1.81-2l.83-.42c.49-.25.61-.59.38-1s-.58-.53-1.07-.28c-1.78.9-2.56,1.25-3.39,2.21" transform="translate(0 -0.26)" style="fill:#fff;fill-rule:evenodd"/><path id="Fill-72" d="M13.85,40.65.14,47.56a14,14,0,0,0,5.14,8.91l13.27-6.69Z" transform="translate(0 -0.26)" style="fill:#009fdf;fill-rule:evenodd"/><polygon id="Fill-74" points="30.8 31.84 16.71 38.95 21.41 48.08 35.5 40.98 30.8 31.84" style="fill:#009fdf;fill-rule:evenodd"/><polygon id="Fill-76" points="38.36 39.53 52.45 32.43 47.75 23.3 33.66 30.4 38.36 39.53" style="fill:#005dab;fill-rule:evenodd"/><polygon id="Fill-78" points="55.31 30.98 59.89 28.68 59.89 17.17 50.61 21.85 55.31 30.98" style="fill:#fff;fill-rule:evenodd"/><g id="ios-bubble"><g id="ios"><g id="Oval"><g style="filter:url(#filter-12)"><circle id="path-11" cx="57" cy="59.74" r="13"/></g><circle id="path-11-2" data-name="path-11" cx="57" cy="59.74" r="13" style="fill:#fff"/></g></g><path id="Fill-1-2" data-name="Fill-1" d="M54.33,55.49a4.14,4.14,0,0,1,1.43.29,4.46,4.46,0,0,0,1.51.35,3.9,3.9,0,0,0,1.43-.35,4,4,0,0,1,1.5-.29,3.51,3.51,0,0,1,2.45,1.16,3.46,3.46,0,0,0-1.56,3.18,3.65,3.65,0,0,0,2.06,2.93,8.93,8.93,0,0,1-.82,1.5,7.86,7.86,0,0,1-1.12,1.38,2,2,0,0,1-1.3.64,2.18,2.18,0,0,1-1-.28,3.71,3.71,0,0,0-1.59-.35,3.9,3.9,0,0,0-1.59.35,2.3,2.3,0,0,1-1.06.28,2,2,0,0,1-1.28-.58,6.68,6.68,0,0,1-1.08-1.32c-1.76-2.6-1.9-5.65-.89-7.16a3.73,3.73,0,0,1,2.95-1.73m5.19-3.38a3,3,0,0,1-.63,1.77,2.86,2.86,0,0,1-1.73,1,2.87,2.87,0,0,1,.65-1.75,3.39,3.39,0,0,1,1.71-1m.36-.78a4,4,0,0,0-2.59,1.35,3.27,3.27,0,0,0-.83,2.6,4.52,4.52,0,0,1-.47-.11,4.94,4.94,0,0,0-1.66-.33,4.33,4.33,0,0,0-3.5,2c-1.24,1.84-1,5.09.88,7.87a7.65,7.65,0,0,0,1.19,1.44,2.63,2.63,0,0,0,1.72.75A3.06,3.06,0,0,0,56,66.6a3,3,0,0,1,1.32-.3h0a2.79,2.79,0,0,1,1.31.29,2.93,2.93,0,0,0,1.32.34,2.6,2.6,0,0,0,1.75-.82,8.6,8.6,0,0,0,1.21-1.49,11.14,11.14,0,0,0,1-1.86.34.34,0,0,0,0-.26.37.37,0,0,0-.19-.18,2.94,2.94,0,0,1-2-2.54A2.82,2.82,0,0,1,63.31,57a.34.34,0,0,0,.17-.22.31.31,0,0,0-.07-.27,4.27,4.27,0,0,0-3.21-1.63,4.93,4.93,0,0,0-1.74.33,1.46,1.46,0,0,1-.2,0,3.43,3.43,0,0,0,1.16-.93,3.5,3.5,0,0,0,.81-2.68.33.33,0,0,0-.35-.28" transform="translate(0 -0.26)" style="fill:#666;stroke:#979797;stroke-width:0.009999999776482582px;fill-rule:evenodd"/></g><g id="Android-bubble"><g id="Android"><g id="Oval-Copy"><g style="filter:url(#filter-14)"><circle id="path-13" cx="87" cy="59.74" r="13"/></g><circle id="path-13-2" data-name="path-13" cx="87" cy="59.74" r="13" style="fill:#fff"/></g></g><g id="android-2" data-name="android"><path id="Shape" d="M89,53l.74-1.23a.29.29,0,0,0-.1-.4.3.3,0,0,0-.41.1l-.77,1.29a4.34,4.34,0,0,0-3,0l-.77-1.29a.3.3,0,0,0-.41-.1.29.29,0,0,0-.1.4L85,53a4.42,4.42,0,0,0-2.41,3.93.3.3,0,0,0,.3.29h8.26a.3.3,0,0,0,.3-.29A4.42,4.42,0,0,0,89,53Zm-5.84,3.63a3.83,3.83,0,0,1,7.64,0Z" transform="translate(0 -0.26)" style="fill:#666"/><path id="Path" d="M89.06,54.69h-.39a.18.18,0,0,0-.19.19v.39a.18.18,0,0,0,.19.19h.39a.18.18,0,0,0,.19-.19v-.39A.18.18,0,0,0,89.06,54.69Z" transform="translate(0 -0.26)" style="fill:#666"/><path id="Path-2" data-name="Path" d="M85.33,54.69h-.39a.18.18,0,0,0-.19.19v.39a.18.18,0,0,0,.19.19h.39a.18.18,0,0,0,.19-.19v-.39A.18.18,0,0,0,85.33,54.69Z" transform="translate(0 -0.26)" style="fill:#666"/><path id="Shape-2" data-name="Shape" d="M91.13,57.53H82.87a.3.3,0,0,0-.3.29v6A1.43,1.43,0,0,0,84,65.2h.34V67a1.18,1.18,0,0,0,2.36,0V65.2h.6V67a1.18,1.18,0,1,0,2.36,0V65.2H90a1.43,1.43,0,0,0,1.43-1.42v-6A.3.3,0,0,0,91.13,57.53Zm-.29,6.25a.84.84,0,0,1-.84.83h-.64a.29.29,0,0,0-.29.3V67a.59.59,0,0,1-.59.59.58.58,0,0,1-.59-.59V64.91a.3.3,0,0,0-.3-.3H86.41a.3.3,0,0,0-.3.3V67a.58.58,0,0,1-.59.59.59.59,0,0,1-.59-.59V64.91a.29.29,0,0,0-.29-.3H84a.84.84,0,0,1-.84-.83V58.12h7.68Z" transform="translate(0 -0.26)" style="fill:#666"/><path id="Shape-3" data-name="Shape" d="M92.75,57.53a1,1,0,0,0-1,1v4.13a1,1,0,1,0,2.07,0V58.56A1,1,0,0,0,92.75,57.53Zm.45,5.16a.45.45,0,1,1-.89,0V58.56a.45.45,0,0,1,.89,0Z" transform="translate(0 -0.26)" style="fill:#666"/><path id="Shape-4" data-name="Shape" d="M81.25,57.53a1,1,0,0,0-1,1v4.13a1,1,0,1,0,2.07,0V58.56A1,1,0,0,0,81.25,57.53Zm.44,5.16a.45.45,0,1,1-.89,0V58.56a.45.45,0,0,1,.89,0Z" transform="translate(0 -0.26)" style="fill:#666"/></g></g></g></g></g></g></g></svg>