<?xml version="1.0" encoding="UTF-8"?>
<svg width="76px" height="77px" viewBox="0 0 76 77" version="1.1" xmlns="http://www.w3.org/2000/svg" xmlns:xlink="http://www.w3.org/1999/xlink">
    <title>icon-gopro-player</title>
    <defs>
        <polygon id="path-1" points="0 0 58.9999263 0 58.9999263 59 0 59"></polygon>
        <circle id="path-3" cx="13" cy="13" r="13"></circle>
        <filter x="-26.9%" y="-19.2%" width="153.8%" height="153.8%" filterUnits="objectBoundingBox" id="filter-4">
            <feOffset dx="0" dy="2" in="SourceAlpha" result="shadowOffsetOuter1"></feOffset>
            <feGaussianBlur stdDeviation="2" in="shadowOffsetOuter1" result="shadowBlurOuter1"></feGaussianBlur>
            <feColorMatrix values="0 0 0 0 0   0 0 0 0 0   0 0 0 0 0  0 0 0 0.0978747815 0" type="matrix" in="shadowBlurOuter1"></feColorMatrix>
        </filter>
    </defs>
    <g id="1440" stroke="none" stroke-width="1" fill="none" fill-rule="evenodd">
        <g id="Apps-Cat-Pre-Launch-design" transform="translate(-691.000000, -138.000000)">
            <g id="sub-nav" transform="translate(0.000000, 100.000000)">
                <g id="gopro-player" transform="translate(670.000000, 38.000000)">
                    <g id="icon-gopro-player" transform="translate(21.000000, 0.000000)">
                        <g id="Group-10">
                            <g id="Group-3">
                                <mask id="mask-2" fill="white">
                                    <use xlink:href="#path-1"></use>
                                </mask>
                                <g id="Clip-2"></g>
                                <path d="M13.2749263,0 L45.7249263,0 C53.0564138,0 58.9999263,5.9435125 58.9999263,13.275 L58.9999263,45.725 C58.9999263,53.0564875 53.0564138,59 45.7249263,59 L13.2749263,59 C5.94343875,59 -7.375e-05,53.0564875 -7.375e-05,45.725 L-7.375e-05,13.275 C-7.375e-05,5.9435125 5.94343875,0 13.2749263,0" id="Fill-1" fill="#282828" mask="url(#mask-2)"></path>
                            </g>
                            <path d="M23.9175675,12.11978 C32.942355,17.5057425 38.954455,21.053855 41.9523925,22.7641175 C46.4496675,25.3291425 47.680555,26.5032425 47.680555,30.266705 C47.680555,32.777155 45.8832675,34.8428925 42.2886925,36.4653925 L33.4829425,41.2886425 L23.9175675,36.1231925 L13.274705,17.5145925 C13.195055,14.5306675 14.31753,12.4494425 16.64213,11.2709175 C18.9659925,10.09313 21.39163,10.3755925 23.9175675,12.11978" id="Fill-4" fill="#FFFFFF"></path>
                            <path d="M13.2749263,17.5148875 C22.3211013,22.7570375 28.3435263,26.2336125 31.3414638,27.9446125 C35.8394763,30.5096375 37.0253763,32.5584125 37.0253763,36.049 C37.0253763,38.375075 35.2841388,40.4481875 31.8001887,42.2668625 L22.8535763,47.1092875 L13.2749263,41.8376375 L13.2749263,17.5148875 Z" id="Fill-6" fill="#00ABF5"></path>
                            <path d="M13.2749263,30.4960675 C14.6179138,31.361155 16.7330637,32.573605 19.6225888,34.134155 C23.9554013,36.4742425 25.8124262,38.7221425 25.8124262,41.83808 C25.8124262,43.91488 25.0247762,45.5499175 23.4480013,46.7417175 C22.1750763,47.6517925 20.8999388,48.10683 19.6225888,48.10683 C17.7058263,48.10683 13.2749263,47.1207925 13.2749263,41.83808 L13.2749263,30.4960675 Z" id="Fill-8" fill="#005DAA"></path>
                        </g>
                        <g id="ios-bubble" transform="translate(46.000000, 45.000000)">
                            <g id="ios" stroke-width="1">
                                <g id="Oval">
                                    <use fill="black" fill-opacity="1" filter="url(#filter-4)" xlink:href="#path-3"></use>
                                    <use fill="#FFFFFF" fill-rule="evenodd" xlink:href="#path-3"></use>
                                </g>
                            </g>
                            <path d="M10.3307363,8.48779552 C10.8690145,8.48779552 11.3005048,8.62363619 11.7593595,8.78222529 C12.2182141,8.94113937 12.7017635,9.12767655 13.2717445,9.12767655 C13.8280432,9.12767655 14.2688774,8.93983946 14.7003676,8.78222529 C15.1318579,8.6249361 15.5620133,8.48779552 16.2020739,8.48779552 C17.0376899,8.48779552 17.9410496,8.91059147 18.6525247,9.64569095 C17.5132302,10.4288871 16.9802914,11.6498282 17.0884142,12.8343718 C17.1965371,14.0315896 17.9370451,15.1677115 19.1530934,15.7591708 C18.8897943,16.3178075 18.7165975,16.6869821 18.329491,17.2621926 C18.0101281,17.735685 17.630697,18.2536994 17.2135564,18.6433477 C16.7964158,19.0329959 16.3545805,19.279329 15.9100754,19.283304 C15.4812549,19.2868034 15.237311,19.162662 14.8672239,18.9988732 C14.496803,18.8350845 14.018593,18.6472474 13.2820896,18.653422 C12.5469209,18.6573217 12.061703,18.8376843 11.6862764,18.9988732 C11.3111836,19.1600621 11.06457,19.2868034 10.6330798,19.283304 C10.1768948,19.279329 9.75341367,19.0635438 9.35028898,18.7041185 C8.947498,18.3450182 8.5840851,17.8549518 8.26605709,17.3840592 C6.5137328,14.7842378 6.37323984,11.7300977 7.379383,10.2244762 C8.11722132,9.11857717 9.28921959,8.48779552 10.3307363,8.48779552 M15.5243038,5.1060779 C15.501945,5.76220782 15.2713497,6.40468867 14.8879141,6.88338077 C14.4864579,7.38579625 13.8113576,7.73384733 13.1569474,7.83784018 C13.1686273,7.20705853 13.4242511,6.55320346 13.8140273,6.09108522 C14.2231588,5.60881836 14.9009289,5.26076727 15.5243038,5.1060779 M15.8787065,4.33425594 C14.9322978,4.39632668 13.9194804,4.94488898 13.2924346,5.68486313 C12.7434776,6.33611838 12.2836218,7.2918777 12.4581534,8.28468448 C12.3016423,8.23756272 12.1594807,8.23268805 11.9889536,8.17289216 C11.5234247,8.01170324 10.991487,7.83784018 10.3307363,7.83784018 C9.01791134,7.83784018 7.67405113,8.59828793 6.82675512,9.86895061 C5.59368746,11.7148238 5.84130213,14.9633005 7.71309549,17.7395848 C8.04313715,18.2270513 8.42757394,18.7587147 8.9021131,19.1815107 C9.37665227,19.6043066 9.94997033,19.9266845 10.6227347,19.9333333 C11.1977213,19.9393586 11.5978426,19.7528214 11.9575847,19.598132 C12.3173267,19.4431177 12.6523741,19.3059771 13.2820896,19.3033773 L13.2924346,19.3033773 C13.9194804,19.2985026 14.2441827,19.4330434 14.5959156,19.5877328 C14.9479823,19.7427471 15.344099,19.9380587 15.9204205,19.9333333 C16.6061997,19.9279844 17.1888617,19.5623845 17.6724111,19.1106655 C18.1559605,18.6586216 18.5537458,18.1038847 18.8821189,17.6177181 C19.3526535,16.9193411 19.5418685,16.5384673 19.9039465,15.7591708 C19.9419897,15.6779264 19.9433246,15.5840079 19.9066162,15.5014636 C19.8715764,15.4189192 19.8024979,15.3542487 19.7164001,15.3224009 C18.5300522,14.8856309 17.853617,13.8639011 17.7558392,12.7836753 C17.6580615,11.7034495 18.1272612,10.591376 19.3096046,9.96026934 C19.3970373,9.91477246 19.4584403,9.83482796 19.4791305,9.74058443 C19.4988196,9.64666589 19.475126,9.54787267 19.4140566,9.47280283 C18.5654257,8.4458734 17.3714024,7.83784018 16.2020739,7.83784018 C15.4562264,7.83784018 14.908938,8.00910341 14.4604284,8.17289216 C14.3860105,8.20084024 14.3312816,8.19824042 14.2622031,8.22391365 C14.717387,7.99025471 15.1188431,7.66657695 15.4198518,7.28927788 C15.967474,6.60519989 16.3896203,5.63156679 16.2331091,4.60821212 C16.2070795,4.44084862 16.0522369,4.32158181 15.8787065,4.33425594" id="Fill-1" stroke="#979797" stroke-width="0.01" fill="#666666"></path>
                        </g>
                    </g>
                </g>
            </g>
        </g>
    </g>
</svg>