<?xml version="1.0" encoding="UTF-8"?>
<svg width="77px" height="78px" viewBox="0 0 77 78" version="1.1" xmlns="http://www.w3.org/2000/svg" xmlns:xlink="http://www.w3.org/1999/xlink">
    <title>icon-max-exporter</title>
    <defs>
        <circle id="path-1" cx="13" cy="13" r="13"></circle>
        <filter x="-26.9%" y="-19.2%" width="153.8%" height="153.8%" filterUnits="objectBoundingBox" id="filter-2">
            <feOffset dx="0" dy="2" in="SourceAlpha" result="shadowOffsetOuter1"></feOffset>
            <feGaussianBlur stdDeviation="2" in="shadowOffsetOuter1" result="shadowBlurOuter1"></feGaussianBlur>
            <feColorMatrix values="0 0 0 0 0   0 0 0 0 0   0 0 0 0 0  0 0 0 0.1 0" type="matrix" in="shadowBlurOuter1"></feColorMatrix>
        </filter>
    </defs>
    <g id="1440" stroke="none" stroke-width="1" fill="none" fill-rule="evenodd">
        <g id="Apps-Cat-Pre-Launch-design" transform="translate(-891.000000, -138.000000)">
            <g id="sub-nav" transform="translate(0.000000, 100.000000)">
                <g id="max-exporter" transform="translate(870.000000, 38.000000)">
                    <g id="icon-max-exporter" transform="translate(21.000000, 0.000000)">
                        <g>
                            <rect id="Rectangle-Copy-73" fill="#282828" x="0" y="0" width="58.9090909" height="58.9090909" rx="12"></rect>
                            <g id="Group-31" transform="translate(12.518182, 11.781818)">
                                <g id="Group-30-Copy-7" transform="translate(5.927727, 21.038961)" fill="#005DAA">
                                    <g id="Group-29-Copy-2">
                                        <path d="M11.6276796,0.402245033 L21.0610808,6.53192758 C21.4042259,6.75489812 21.5016466,7.21382553 21.2786761,7.55697063 C21.2221709,7.64393052 21.1480407,7.71806069 21.0610808,7.77456592 L11.6276796,13.9042485 C11.2512303,14.1488596 10.7660424,14.1488596 10.3895931,13.9042485 L0.956191928,7.77456592 C0.613046826,7.55159538 0.515626094,7.09266798 0.738596634,6.74952288 C0.795101863,6.66256299 0.869232042,6.58843281 0.956191928,6.53192758 L10.3895931,0.402245033 C10.7660424,0.157633922 11.2512303,0.157633922 11.6276796,0.402245033 Z" id="Polygon-Copy-27"></path>
                                    </g>
                                </g>
                                <g id="Group-30-Copy-8">
                                    <g id="Group-29-Copy-3" transform="translate(2.540455, 10.098701)" fill="#00ABF5">
                                        <path d="M15.0297827,0.426133523 L27.8771153,9.06299577 C28.2167297,9.29130799 28.306958,9.75170349 28.0786458,10.0913179 C28.0251431,10.1709031 27.9567005,10.2393458 27.8771153,10.2928484 L15.0297827,18.9297106 C14.6464823,19.1873916 14.1453359,19.1873916 13.7620355,18.9297106 L0.91470288,10.2928484 C0.575088459,10.0645362 0.484860194,9.60414066 0.71317241,9.26452624 C0.766675033,9.18494109 0.835117728,9.1164984 0.91470288,9.06299577 L13.7620355,0.426133523 C14.1453359,0.168452556 14.6464823,0.168452556 15.0297827,0.426133523 Z" id="Polygon-Copy-27"></path>
                                    </g>
                                    <g id="Group-29-Copy-2" fill="#FFFFFF">
                                        <path d="M17.5692872,0.424569861 L32.9554113,10.7456966 C33.2952555,10.9736666 33.3859475,11.433971 33.1579774,11.7738152 C33.1042752,11.8538713 33.0354674,11.9226791 32.9554113,11.9763813 L17.5692872,22.2975081 C17.1864198,22.5543384 16.6863075,22.5543384 16.30344,22.2975081 L0.917315953,11.9763813 C0.577471741,11.7484113 0.486779798,11.2881069 0.714749828,10.9482627 C0.768452063,10.8682066 0.837259845,10.7993988 0.917315953,10.7456966 L16.30344,0.424569861 C16.6863075,0.167739532 17.1864198,0.167739532 17.5692872,0.424569861 Z" id="Polygon-Copy-27"></path>
                                    </g>
                                </g>
                            </g>
                        </g>
                        <g id="microsoft-bubble" transform="translate(47.000000, 46.000000)">
                            <g id="microsoft">
                                <g id="Oval">
                                    <use fill="black" fill-opacity="1" filter="url(#filter-2)" xlink:href="#path-1"></use>
                                    <use fill="#FFFFFF" fill-rule="evenodd" xlink:href="#path-1"></use>
                                </g>
                                <g id="outlined-logo" transform="translate(6.066667, 6.933333)" stroke="#666666" stroke-width="0.6">
                                    <path d="M12.7,0.351622812 L6.41764706,1.35330967 L6.41764706,5.81764706 L12.7,5.81764706 L12.7,0.351622812 Z" id="Rectangle"></path>
                                    <path d="M12.7,7.18235294 L6.41764706,7.18235294 L6.41764706,11.746823 L12.7,12.6535905 L12.7,7.18235294 Z" id="Rectangle-Copy"></path>
                                    <path d="M5.05294118,7.18235294 L0.3,7.18235294 L0.3,11.2352985 L5.05294118,11.8910613 L5.05294118,7.18235294 Z" id="Rectangle-Copy-2"></path>
                                    <path d="M5.05294118,1.11408692 L0.3,1.84114923 L0.3,5.81462038 L5.05294118,5.76690774 L5.05294118,1.11408692 Z" id="Rectangle-Copy-3"></path>
                                </g>
                            </g>
                        </g>
                    </g>
                </g>
            </g>
        </g>
    </g>
</svg>